<svg height="512pt" viewBox="-85 0 512 512" width="512pt" xmlns="http://www.w3.org/2000/svg"><path d="m329.5 167c6.894531 0 12.5-5.605469 12.5-12.5v-30c0-6.894531-5.605469-12.5-12.5-12.5h-1.5v-74.5c0-20.679688-16.820312-37.5-37.5-37.5h-253c-20.679688 0-37.5 16.820312-37.5 37.5v364.832031c0 4.144531 3.355469 7.5 7.5 7.5s7.5-3.355469 7.5-7.5v-364.832031c0-12.40625 10.09375-22.5 22.5-22.5h253c12.40625 0 22.5 10.09375 22.5 22.5v437c0 12.40625-10.09375 22.5-22.5 22.5h-253c-12.40625 0-22.5-10.09375-22.5-22.5v-37.167969c0-4.140625-3.355469-7.5-7.5-7.5s-7.5 3.359375-7.5 7.5v37.167969c0 20.679688 16.820312 37.5 37.5 37.5h253c20.679688 0 37.5-16.820312 37.5-37.5v-232.5h1.5c6.894531 0 12.5-5.605469 12.5-12.5v-30c0-6.894531-5.605469-12.5-12.5-12.5h-1.5v-20zm0 0"/><path d="m185 45c4.144531 0 7.5-3.359375 7.5-7.5s-3.355469-7.5-7.5-7.5h-42c-4.144531 0-7.5 3.359375-7.5 7.5s3.355469 7.5 7.5 7.5zm0 0"/><path d="m220 45c4.144531 0 7.5-3.359375 7.5-7.5s-3.355469-7.5-7.5-7.5h-5c-4.144531 0-7.5 3.359375-7.5 7.5s3.355469 7.5 7.5 7.5zm0 0"/><path d="m113 45c4.144531 0 7.5-3.359375 7.5-7.5s-3.355469-7.5-7.5-7.5h-5c-4.144531 0-7.5 3.359375-7.5 7.5s3.355469 7.5 7.5 7.5zm0 0"/><path d="m30 72.5v367c0 6.894531 5.605469 12.5 12.5 12.5h243c6.894531 0 12.5-5.605469 12.5-12.5v-367c0-6.894531-5.605469-12.5-12.5-12.5h-243c-6.894531 0-12.5 5.605469-12.5 12.5zm253 2.5v362h-238v-332h210.5c4.144531 0 7.5-3.359375 7.5-7.5s-3.355469-7.5-7.5-7.5h-210.5v-15zm0 0"/><path d="m153.5 467c-4.144531 0-7.5 3.359375-7.5 7.5s3.355469 7.5 7.5 7.5h21c4.144531 0 7.5-3.359375 7.5-7.5s-3.355469-7.5-7.5-7.5zm0 0"/><path d="m174 377h-20c-6.894531 0-12.5 5.605469-12.5 12.5v20c0 6.894531 5.605469 12.5 12.5 12.5h20c6.894531 0 12.5-5.605469 12.5-12.5v-20c0-6.894531-5.605469-12.5-12.5-12.5zm-2.5 30h-15v-15h15zm0 0"/><path d="m234 377h-20c-6.894531 0-12.5 5.605469-12.5 12.5v20c0 6.894531 5.605469 12.5 12.5 12.5h20c6.894531 0 12.5-5.605469 12.5-12.5v-20c0-6.894531-5.605469-12.5-12.5-12.5zm-2.5 30h-15v-15h15zm0 0"/><path d="m114 377h-20c-6.894531 0-12.5 5.605469-12.5 12.5v20c0 6.894531 5.605469 12.5 12.5 12.5h20c6.894531 0 12.5-5.605469 12.5-12.5v-20c0-6.894531-5.605469-12.5-12.5-12.5zm-2.5 30h-15v-15h15zm0 0"/><path d="m224 274v-66c0-15.164062-12.335938-27.5-27.5-27.5h-65c-15.164062 0-27.5 12.335938-27.5 27.5v66c0 15.164062 12.335938 27.5 27.5 27.5h65c15.164062 0 27.5-12.335938 27.5-27.5zm-15 0c0 6.894531-5.605469 12.5-12.5 12.5h-65c-6.894531 0-12.5-5.605469-12.5-12.5v-66c0-6.894531 5.605469-12.5 12.5-12.5h65c6.894531 0 12.5 5.605469 12.5 12.5zm0 0"/></svg>