<svg height="512pt" viewBox="0 -36 512 512" width="512pt" xmlns="http://www.w3.org/2000/svg"><path d="m508.167969 251.453125-71.382813-68.683594c-1.503906-1.441406-3.105468-2.707031-4.785156-3.808593v-121.460938c0-12.40625-10.09375-22.5-22.5-22.5h-172.34375l-5.335938-18.683594c-2.746093-9.605468-11.640624-16.316406-21.632812-16.316406h-187.6875c-12.40625 0-22.5 10.09375-22.5 22.5v395c0 12.40625 10.09375 22.5 22.5 22.5h296c4.144531 0 7.5-3.355469 7.5-7.5s-3.355469-7.5-7.5-7.5h-296c-4.136719 0-7.5-3.363281-7.5-7.5v-332.5h402v88.777344c-5.066406-.429688-10.214844.332031-15 2.289062v-63.566406c0-6.894531-5.605469-12.5-12.5-12.5h-347c-6.894531 0-12.5 5.605469-12.5 12.5v25c0 4.144531 3.355469 7.5 7.5 7.5s7.5-3.355469 7.5-7.5v-22.5h342v72.3125l-66.664062 64.136719c-2.4375 2.347656-3.835938 5.628906-3.835938 9.011719v6.039062c0 6.894531 5.605469 12.5 12.5 12.5h2v81.5c0 9.648438 7.851562 17.5 17.5 17.5h38.5v17h-342v-222.5c0-4.144531-3.355469-7.5-7.5-7.5s-7.5 3.355469-7.5 7.5v225c0 6.894531 5.605469 12.5 12.5 12.5h347c6.894531 0 12.5-5.605469 12.5-12.5v-19.5h15v39.5c0 4.136719-3.363281 7.5-7.5 7.5h-56c-4.144531 0-7.5 3.355469-7.5 7.5s3.355469 7.5 7.5 7.5h56c12.40625 0 22.5-10.09375 22.5-22.5v-39.5h47.5c9.648438 0 17.5-7.851562 17.5-17.5v-81.5h2.5c6.894531 0 12.5-5.605469 12.5-12.5v-6.039062c0-3.382813-1.398438-6.667969-3.832031-9.007813zm-290.773438-231.015625 4.164063 14.5625h-36.402344l-5.335938-18.683594c-.128906-.445312-.285156-.882812-.4375-1.316406h30.800782c3.332031 0 6.296875 2.234375 7.210937 5.4375zm-52 0 4.164063 14.5625h-36.402344l-5.335938-18.683594c-.128906-.445312-.28125-.882812-.4375-1.316406h30.804688c3.328125 0 6.292969 2.234375 7.207031 5.4375zm-150.394531 49.5625v-47.5c0-4.136719 3.363281-7.5 7.5-7.5h83.6875c3.328125 0 6.292969 2.234375 7.210938 5.4375l5.855468 20.496094c1.523438 5.339844 6.464844 9.066406 12.019532 9.066406h278.226562c4.136719 0 7.5 3.363281 7.5 7.5v12.5zm331 290.5v-12.5h15v15h-12.5c-1.378906 0-2.5-1.121094-2.5-2.5zm60 2.5h-30v-54h30zm73.5 0h-58.5v-15h61v12.5c0 1.378906-1.121094 2.5-2.5 2.5zm2.5-30h-61v-26.5c0-6.894531-5.605469-12.5-12.5-12.5h-35c-6.894531 0-12.5 5.605469-12.5 12.5v26.5h-15v-54h136zm15-69h-165.5v-2.472656l70.617188-67.945313c6.804687-6.546875 17.460937-6.546875 24.265624 0l70.617188 67.941407zm0 0"/><path d="m300 245.5v-103c0-6.894531-5.605469-12.5-12.5-12.5h-215c-6.894531 0-12.5 5.605469-12.5 12.5v103c0 6.894531 5.605469 12.5 12.5 12.5h215c6.894531 0 12.5-5.605469 12.5-12.5zm-15-2.5h-210v-98h210zm0 0"/><path d="m75 288h47c4.144531 0 7.5-3.355469 7.5-7.5s-3.355469-7.5-7.5-7.5h-47c-4.144531 0-7.5 3.355469-7.5 7.5s3.355469 7.5 7.5 7.5zm0 0"/><path d="m292.5 280.5c0-4.144531-3.355469-7.5-7.5-7.5h-133c-4.144531 0-7.5 3.355469-7.5 7.5s3.355469 7.5 7.5 7.5h133c4.144531 0 7.5-3.355469 7.5-7.5zm0 0"/><path d="m75 318h48c4.144531 0 7.5-3.355469 7.5-7.5s-3.355469-7.5-7.5-7.5h-48c-4.144531 0-7.5 3.355469-7.5 7.5s3.355469 7.5 7.5 7.5zm0 0"/><path d="m250.5 310.5c0-4.144531-3.355469-7.5-7.5-7.5h-90c-4.144531 0-7.5 3.355469-7.5 7.5s3.355469 7.5 7.5 7.5h90c4.144531 0 7.5-3.355469 7.5-7.5zm0 0"/><path d="m75 348h135c4.144531 0 7.5-3.355469 7.5-7.5s-3.355469-7.5-7.5-7.5h-135c-4.144531 0-7.5 3.355469-7.5 7.5s3.355469 7.5 7.5 7.5zm0 0"/></svg>