<svg height="512pt" viewBox="-70 0 512 512" width="512pt" xmlns="http://www.w3.org/2000/svg"><path d="m364.5 297c4.144531 0 7.5-3.359375 7.5-7.5v-15c0-48.480469-37.488281-88.363281-85-92.195312v-47.804688c0-12.238281-9.824219-22.21875-22-22.488281v-12.511719c0-8.5-6.09375-15.59375-14.136719-17.167969l-18.183593-49.703125c-7.140626-19.515625-25.898438-32.628906-46.679688-32.628906s-39.539062 13.113281-46.679688 32.628906l-18.183593 49.703125c-8.042969 1.574219-14.136719 8.671875-14.136719 17.167969v12.511719c-12.175781.269531-22 10.25-22 22.488281v47.804688c-47.511719 3.832031-85 43.714843-85 92.195312v65c0 12.40625 10.09375 22.5 22.5 22.5h62.5v7.5c0 12.40625 10.09375 22.5 22.5 22.5h9.34375l4.300781 15.054688c2.925781 10.25 11.582031 17.796874 21.855469 19.550781v21.414062c-6.035156-4.414062-13.46875-7.019531-21.5-7.019531-17.039062 0-31.386719 11.734375-35.390625 27.546875-3.257813-1.015625-6.667969-1.546875-10.109375-1.546875-18.746094 0-34 15.253906-34 34v3.5c0 4.140625 3.359375 7.5 7.5 7.5h273c4.144531 0 7.5-3.359375 7.5-7.5v-3.5c0-18.746094-15.253906-34-34-34-3.441406 0-6.851562.53125-10.109375 1.546875-4.003906-15.8125-18.351563-27.546875-35.390625-27.546875-8.03125 0-15.464844 2.609375-21.5 7.019531v-21.410156c10.273438-1.757813 18.929688-9.304687 21.855469-19.554687l4.300781-15.054688h9.34375c12.40625 0 22.5-10.09375 22.5-22.5v-7.5h62.5c12.40625 0 22.5-10.09375 22.5-22.5v-15c0-4.140625-3.355469-7.5-7.5-7.5h-77.5v-119.632812c39.226562 3.785156 70 36.929687 70 77.132812v15c0 4.140625 3.355469 7.5 7.5 7.5zm-242.5-185v-12.5c0-1.378906 1.121094-2.5 2.5-2.5h123c1.378906 0 2.5 1.121094 2.5 2.5v12.5zm31.40625-74.21875c4.988281-13.625 18.085938-22.78125 32.59375-22.78125 14.511719 0 27.605469 9.15625 32.59375 22.78125l16.175781 44.21875h-97.539062zm-68.40625 159.585938v119.632812h-70v-42.5c0-40.203125 30.773438-73.34375 70-77.132812zm-62.5 149.632812c-4.136719 0-7.5-3.363281-7.5-7.5v-7.5h70v15zm228 109c11.855469 0 21.5 9.644531 21.5 21.5v2.769531c0 2.882813 1.648438 5.507813 4.246094 6.757813 2.59375 1.25 5.675781.90625 7.929687-.890625 3.394531-2.707031 7.480469-4.136719 11.824219-4.136719 9.105469 0 16.734375 6.4375 18.574219 15h-257.148438c1.839844-8.5625 9.46875-15 18.574219-15 4.339844 0 8.429688 1.429688 11.824219 4.136719 2.253906 1.796875 5.335937 2.140625 7.929687.890625 2.597656-1.25 4.246094-3.875 4.246094-6.757813v-2.769531c0-11.855469 9.644531-21.5 21.5-21.5s21.5 9.644531 21.5 21.5c0 4.140625 3.359375 7.5 7.5 7.5s7.5-3.359375 7.5-7.5v-50.5h56v50.5c0 4.140625 3.355469 7.5 7.5 7.5s7.5-3.359375 7.5-7.5c0-11.855469 9.644531-21.5 21.5-21.5zm-14.066406-53.066406c-1.523438 5.339844-6.46875 9.066406-12.019532 9.066406h-76.828124c-5.550782 0-10.492188-3.726562-12.019532-9.066406l-3.125-10.933594h107.117188zm28.066406-25.933594h-157c-4.136719 0-7.5-3.363281-7.5-7.5v-235c0-4.136719 3.363281-7.5 7.5-7.5h157c4.136719 0 7.5 3.363281 7.5 7.5v212.5h-144.5c-4.140625 0-7.5 3.359375-7.5 7.5s3.359375 7.5 7.5 7.5h144.5v7.5c0 4.136719-3.363281 7.5-7.5 7.5zm92.5-45v7.5c0 4.136719-3.363281 7.5-7.5 7.5h-62.5v-15zm0 0"/><path d="m186 259c23.710938 0 43-19.289062 43-43s-19.289062-43-43-43-43 19.289062-43 43 19.289062 43 43 43zm0-71c15.4375 0 28 12.5625 28 28s-12.5625 28-28 28-28-12.5625-28-28 12.5625-28 28-28zm0 0"/></svg>